<?xml version="1.0" encoding="utf-8"?>
<!-- Generator: Adobe Illustrator 16.0.0, SVG Export Plug-In . SVG Version: 6.00 Build 0)  -->
<!DOCTYPE svg PUBLIC "-//W3C//DTD SVG 1.1//EN" "http://www.w3.org/Graphics/SVG/1.1/DTD/svg11.dtd">
<svg version="1.1" id="Layer_1" xmlns="http://www.w3.org/2000/svg" xmlns:xlink="http://www.w3.org/1999/xlink" x="0px" y="0px"
	 width="180px" height="144px" viewBox="0 0 180 144" enable-background="new 0 0 180 144" xml:space="preserve" fill="black">
<path fill-rule="evenodd" clip-rule="evenodd" d="M31.922,97.48c0-6.167,0-12.205,0-18.346c2.85,0,5.647-0.024,8.444,0.006
	c3.629,0.039,4.735,2.142,4.822,4.69c0.115,3.373,0.092,6.779-0.262,10.131c-0.247,2.336-1.666,3.395-4.006,3.489
	C37.961,97.571,34.995,97.48,31.922,97.48z M34.714,81.218c0,4.752,0,9.441,0,14.2c2.105,0,4.129,0.008,6.152-0.004
	c1.027-0.006,1.479-0.639,1.487-1.574c0.031-3.66,0.027-7.32,0.037-10.981c0.002-1.051-0.562-1.611-1.573-1.63
	C38.801,81.19,36.784,81.218,34.714,81.218z"/>
<path fill-rule="evenodd" clip-rule="evenodd" d="M151.394,84.246c0-1.695,0-3.366,0-5.121c0.854-0.124,1.645-0.237,2.705-0.391
	c0,6.286,0,12.467,0,18.749c-1.021,0.43-1.632-0.346-2.139-1.334c-1.606,1.026-3.256,1.723-5.186,1.624
	c-2.149-0.109-3.135-0.829-3.662-2.896c-0.72-2.821-0.621-5.646,0.085-8.446c0.481-1.913,1.368-2.599,3.41-2.733
	c0.815-0.054,1.647-0.087,2.456,0.002C149.823,83.785,150.563,84.044,151.394,84.246z M145.256,86.085
	c0,2.023-0.014,4.041,0.003,6.059c0.026,3.244,1.5,4.201,4.488,2.927c0.285-0.123,0.554-0.283,0.837-0.411
	c0.592-0.271,0.839-0.679,0.819-1.37c-0.053-1.791-0.018-3.585-0.019-5.377c0-1.735-0.38-2.094-2.135-2.015
	C148.048,85.95,146.848,86.01,145.256,86.085z"/>
<path fill-rule="evenodd" clip-rule="evenodd" d="M125.316,81.954c-0.112-1.446-1.203-2.553-2.596-2.635
	c-3.054-0.179-6.127-0.055-9.256-0.055c0,6.005,0,12.066,0,18.162c0.881,0,1.709,0,2.649,0c0-2.102,0-4.118,0-6.075
	c0.149-0.071,0.183-0.102,0.217-0.103c1.714-0.022,3.429-0.019,5.142-0.07c1.991-0.062,3.607-1.144,3.814-2.96
	C125.522,86.153,125.478,84.032,125.316,81.954z M122.949,87.604c-0.025,0.903-0.548,1.438-1.486,1.446
	c-1.746,0.013-3.492,0.003-5.3,0.003v-7.751c1.868,0,3.646,0.005,5.425-0.003c0.953-0.004,1.339,0.593,1.363,1.406
	C123,84.337,122.995,85.972,122.949,87.604z"/>
<path fill-rule="evenodd" clip-rule="evenodd" d="M97.232,83.951c1.092-0.396,1.688,0.319,2.166,1.347
	c1.974-2.005,4.368-1.896,6.771-1.389c1.999,0.422,2.701,1.298,2.74,3.348c0.064,3.354,0.018,6.709,0.018,10.161
	c-0.854,0-1.678,0-2.605,0c0-3.685,0-7.34,0-10.926c-1.524,0-2.947-0.039-4.366,0.011c-1.551,0.054-1.996,0.549-2.001,2.093
	c-0.007,2.92-0.002,5.841-0.002,8.839c-0.898,0-1.699,0-2.721,0C97.232,92.997,97.232,88.535,97.232,83.951z"/>
<path fill-rule="evenodd" clip-rule="evenodd" d="M138.996,97.436c-1.134,0.353-1.842-0.136-2.24-1.298
	c-1.536,1.203-3.317,1.537-5.143,1.597c-2.568,0.082-3.651-0.894-3.904-3.43c-0.077-0.771-0.077-1.565,0.002-2.337
	c0.2-1.965,1.067-2.938,3.012-3.096c1.732-0.141,3.485-0.029,5.397-0.029c0-0.496-0.003-0.985,0-1.475
	c0.007-1.001-0.497-1.547-1.488-1.562c-1.67-0.026-3.34-0.007-5.161-0.007c-0.091-0.282-0.239-0.74-0.401-1.244
	c2.107-0.774,4.21-1.108,6.36-0.826c2.008,0.264,3.189,1.732,3.261,3.945c0.054,1.676-0.015,3.355,0.034,5.033
	C138.77,94.259,138.899,95.809,138.996,97.436z M136.122,90.781c-1.195,0-2.244,0.034-3.291-0.007
	c-2.965-0.115-3.484,0.103-3.047,3.627c0.103,0.828,0.571,1.309,1.402,1.232c1.272-0.115,2.536-0.317,3.802-0.494
	c0.867-0.121,1.247-0.564,1.153-1.498C136.049,92.72,136.122,91.781,136.122,90.781z"/>
<path fill-rule="evenodd" clip-rule="evenodd" d="M58.531,97.123c-1.625,0.214-3.193,0.598-4.757,0.584
	c-2.069-0.02-3.642-1.074-4.392-3.085c-0.93-2.491-0.86-5.052-0.288-7.597c0.448-1.991,1.892-3.097,3.815-3.267
	c1.605-0.142,3.274,0.008,4.863,0.305c0.67,0.126,1.576,0.872,1.729,1.495c0.333,1.352,0.414,2.821,0.291,4.216
	c-0.104,1.174-1.087,1.832-2.23,2.122c-1.879,0.478-3.766,0.563-5.663,0.098c-0.139-0.034-0.287-0.032-0.434-0.048
	c-0.166,2.744,0.73,3.718,3.37,3.681c0.739-0.01,1.48-0.065,2.215-0.15C58.356,95.323,58.424,95.371,58.531,97.123z M57.726,85.798
	c-1.822,0-3.378,0.006-4.934-0.003c-0.896-0.005-1.422,0.463-1.482,1.313c-0.073,1.031-0.018,2.071-0.018,3.139
	c1.804,0,3.473-0.014,5.142,0.007c0.757,0.009,1.231-0.346,1.274-1.064C57.774,88.078,57.726,86.96,57.726,85.798z"/>
<path fill-rule="evenodd" clip-rule="evenodd" d="M71.062,86.193c-1.97-0.144-3.885-0.283-5.723-0.418
	c-0.119,0.348-0.164,0.419-0.165,0.491c-0.058,2.611-0.056,2.604,2.542,3.068c0.65,0.116,1.293,0.278,1.93,0.454
	c1.964,0.545,2.645,1.407,2.72,3.41c0.117,3.072-0.954,4.297-4.021,4.537c-1.933,0.151-3.81-0.094-5.695-1.023
	c0.094-0.551,0.194-1.134,0.268-1.569c2.4,0.188,4.662,0.363,7.029,0.549c-0.043-0.538-0.071-0.721-0.07-0.902
	c0.015-2.462,0.013-2.448-2.341-2.975c-0.908-0.203-1.82-0.429-2.692-0.748c-1.091-0.399-1.768-1.224-2.076-2.358
	c-0.842-3.093,0.55-5.009,3.745-5.036c1.082-0.009,2.179,0.097,3.244,0.287C71.524,84.276,71.516,84.323,71.062,86.193z"/>
<path fill-rule="evenodd" clip-rule="evenodd" d="M76.249,84.114c0.796-0.079,1.565-0.154,2.448-0.242c0,4.539,0,9,0,13.552
	c-0.759,0-1.557,0-2.448,0C76.249,93.071,76.249,88.685,76.249,84.114z"/>
<g>
	<path d="M91.678,96.959C91.205,96.959,92.085,96.964,91.678,96.959L91.678,96.959z"/>
	<path d="M93.848,83.129c0.062-0.498-0.731-1.074-0.953-1.269c-0.221-0.193-0.768,0.47-1.721,1.676
		c-0.165,0.209-0.574,0.322-0.867,0.317c-1.201-0.02-2.411-0.231-3.598-0.131c-1.669,0.143-3.107,0.85-3.734,2.558
		c-0.861,2.343-0.326,4.539,1.417,6.22c0.807,0.526,1.817,0.768,1.817,0.768v0.045c-0.179,0.383-0.464,0.739-0.724,1.016
		c-0.004,0.007-0.004,0.015-0.009,0.022c-0.829,1.353-0.325,2.41,1.258,2.521c1.593,0.113,3.197,0.068,4.796,0.085
		c0.064,0.001,0.11,0.002,0.148,0.002c0.042,0,0.091,0,0.156,0c0,0.834,0.094,1.475-0.037,2.066
		c-0.075,0.338-0.51,0.841-0.796,0.849c-2.356,0.068-3.634,0.039-6.056,0.039c-0.448-0.232-1.98-0.359-1.875,0.606
		c0.128,1.17,1.021,1.613,1.961,1.649c2.486,0.095,3.904,0.146,6.384-0.011c1.773-0.111,2.503-1.029,2.629-2.839
		c0.062-0.888,0.008-1.801-0.131-2.68c-0.153-0.967-0.737-1.626-1.792-1.701c-1.203-0.085-0.243-0.175-1.448-0.213
		c-1.14-0.036-2.282-0.008-3.572-0.008c0.343-0.578,0.475-0.973,0.678-1.313c1.349,0,0.547-0.039,1.744-0.106
		c2.272-0.127,3.831-1.39,4.101-3.436c0.247-1.872,0.275-3.758-1.311-5.153C93.094,83.596,93.021,83.161,93.848,83.129z
		 M91.184,89.431c-0.009,1.023-0.526,1.436-1.555,1.396c-1.432-0.055-2.867-0.014-4.542-0.014c0.059-1.186,0.041-2.457,0.209-3.702
		c0.136-1.002,1.059-1.025,1.837-1.049c1.24-0.037,2.481-0.01,4.053-0.01C91.186,87.28,91.193,88.355,91.184,89.431z"/>
</g>
<ellipse fill-rule="evenodd" clip-rule="evenodd" cx="77.473" cy="80.831" rx="1.224" ry="1.261"/>
<g>
	<polygon fill="#F15623" stroke="#000000" stroke-width="1.2" stroke-miterlimit="10" points="89.603,44.167 105.937,71.667
		122.271,44.167 	"/>
	<polygon fill="#F067A6" stroke="#000000" stroke-width="1.2" stroke-miterlimit="10" points="33.667,44.167 50,71.667
		66.333,44.167 	"/>
	<line fill="none" stroke="#000000" stroke-width="1.2" stroke-miterlimit="10" x1="42.39" y1="58.854" x2="57.743" y2="58.854"/>
	<g>
		<polygon fill="#FFCB05" stroke="#000000" stroke-width="1.2" stroke-miterlimit="10" points="61.667,71.667 78,44.167
			94.334,71.667 		"/>
		<line fill="none" stroke="#000000" stroke-width="1.2" stroke-miterlimit="10" x1="73.077" y1="52.466" x2="85.449" y2="71.667"/>
		<line fill="none" stroke="#000000" stroke-width="1.2" stroke-miterlimit="10" x1="67.763" y1="61.403" x2="74.702" y2="71.667"/>
	</g>
	<g>
		<polygon fill="#78B6E4" stroke="#000000" stroke-width="1.2" stroke-miterlimit="10" points="150.334,71.667 134,44.167
			117.666,71.667 		"/>

			<line fill="none" stroke="#000000" stroke-width="1.2" stroke-miterlimit="10" x1="138.923" y1="52.466" x2="126.551" y2="71.667"/>

			<line fill="none" stroke="#000000" stroke-width="1.2" stroke-miterlimit="10" x1="144.237" y1="61.403" x2="137.298" y2="71.667"/>
	</g>
	<line fill="none" stroke="#000000" stroke-width="1.2" stroke-miterlimit="10" x1="121.405" y1="44.167" x2="96.938" y2="56.516"/>

		<line fill="none" stroke="#000000" stroke-width="1.2" stroke-miterlimit="10" x1="101.713" y1="53.793" x2="112.033" y2="61.403"/>
</g>
</svg>
